<svg width="42" height="43" viewBox="0 0 42 43" fill="none" xmlns="http://www.w3.org/2000/svg">
<rect x="0.705046" y="1.082" width="40.4435" height="40.4435" rx="20.2218" stroke="#4C4C4C" stroke-width="1.3985"/>
<path opacity="0.5" d="M20.926 31.7427C26.6928 31.7427 31.3677 27.0678 31.3677 21.301C31.3677 15.5343 26.6928 10.8594 20.926 10.8594C15.1593 10.8594 10.4844 15.5343 10.4844 21.301C10.4844 27.0678 15.1593 31.7427 20.926 31.7427Z" fill="#D9D9D9"/>
<path d="M22.937 23.7095C23.1928 23.5101 23.4246 23.2782 23.8893 22.8136L29.674 17.0289C29.8139 16.889 29.7502 16.6478 29.5633 16.5831C28.6591 16.2658 27.8382 15.7486 27.1617 15.0701C26.4828 14.3936 25.9652 13.5727 25.6477 12.6685C25.584 12.4805 25.3428 12.4179 25.2028 12.5578L19.4182 18.3425C18.9535 18.8061 18.7217 19.0389 18.5223 19.2948C18.2864 19.5961 18.0843 19.9224 17.9198 20.2679C17.7809 20.5603 17.6765 20.8725 17.4697 21.4948L17.2014 22.2988L16.7743 23.579L16.3755 24.7777C16.3256 24.9278 16.3185 25.0888 16.3549 25.2427C16.3913 25.3966 16.4698 25.5374 16.5816 25.6493C16.6934 25.7612 16.8341 25.8398 16.988 25.8764C17.1419 25.9129 17.3029 25.906 17.453 25.8563L18.6538 25.4564L19.9319 25.0304L20.7359 24.762C21.3593 24.5542 21.6704 24.4508 21.9628 24.3109C22.3095 24.146 22.6342 23.9455 22.937 23.7095ZM31.4856 15.2183C32.0786 14.6254 32.4119 13.8212 32.412 12.9826C32.4121 12.144 32.079 11.3397 31.4861 10.7467C30.8932 10.1536 30.089 9.82041 29.2504 9.82031C28.4118 9.82021 27.6075 10.1533 27.0145 10.7462L26.8276 10.932C26.739 11.0192 26.6731 11.1267 26.6356 11.2452C26.5981 11.3637 26.5902 11.4895 26.6125 11.6118C26.6407 11.7684 26.6929 11.9981 26.7879 12.2727C27.0436 13.0058 27.4628 13.671 28.0137 14.218C28.5605 14.7688 29.2253 15.188 29.958 15.4439C30.2326 15.5378 30.4623 15.5911 30.6189 15.6193C30.8695 15.6642 31.1201 15.5827 31.2997 15.4031L31.4856 15.2183Z" fill="#D9D9D9"/>
</svg>
