<svg width="115" height="118" viewBox="0 0 115 118" fill="none" xmlns="http://www.w3.org/2000/svg">
<path d="M103.634 67.6914C103.634 79.2055 99.5304 89.6785 92.6709 97.8854C84.0353 108.236 71.0513 114.789 56.4749 114.789C42.511 114.789 30.0169 108.726 21.3813 99.1103C13.9706 90.7809 9.43848 79.7567 9.43848 67.6914C9.43848 41.6621 30.5069 20.5938 56.5361 20.5938C82.5654 20.5938 103.634 41.6621 103.634 67.6914Z" fill="white"/>
<path fill-rule="evenodd" clip-rule="evenodd" d="M54.4152 19.1391C55.1185 19.109 55.8256 19.0938 56.5361 19.0938C57.2467 19.0938 57.9538 19.109 58.6571 19.1391L58.5286 22.1364C57.8681 22.1081 57.2038 22.0938 56.5361 22.0938C55.8684 22.0938 55.2042 22.1081 54.5437 22.1364L54.4152 19.1391ZM62.882 19.5037C64.294 19.6876 65.6871 19.932 67.0586 20.2343L66.4128 23.1639C65.1265 22.8804 63.8196 22.6511 62.4946 22.4786L62.882 19.5037ZM46.0137 20.2343C47.3851 19.932 48.7782 19.6876 50.1903 19.5037L50.5777 22.4786C49.2527 22.6511 47.9458 22.8804 46.6594 23.1639L46.0137 20.2343ZM37.9306 22.7775C39.2318 22.2384 40.5615 21.7543 41.917 21.3278L42.8173 24.1895C41.5461 24.5895 40.2991 25.0435 39.0787 25.5491L37.9306 22.7775ZM71.1553 21.3278C72.5107 21.7543 73.8405 22.2384 75.1417 22.7774L73.9935 25.5491C72.7732 25.0435 71.5261 24.5895 70.255 24.1895L71.1553 21.3278ZM78.9853 24.5711C80.2424 25.2263 81.4671 25.9348 82.6564 26.6937L81.0428 29.2227C79.9269 28.5108 78.7779 27.8461 77.5987 27.2314L78.9853 24.5711ZM30.4158 26.6937C31.6052 25.9348 32.8299 25.2263 34.087 24.5711L35.4736 27.2314C34.2944 27.8461 33.1454 28.5108 32.0295 29.2228L30.4158 26.6937ZM86.1281 29.1279C87.2502 29.9899 88.3335 30.8997 89.375 31.8545L87.3478 34.0659C86.3703 33.1698 85.3536 32.3159 84.3006 31.5069L86.1281 29.1279ZM23.6973 31.8545C24.7387 30.8997 25.822 29.9899 26.9441 29.1279L28.7717 31.5069C27.7187 32.3159 26.702 33.1698 25.7245 34.0659L23.6973 31.8545ZM92.3731 34.8525C93.3278 35.894 94.2377 36.9773 95.0997 38.0994L92.7206 39.927C91.9117 38.8739 91.0577 37.8572 90.1617 36.8798L92.3731 34.8525ZM17.9726 38.0994C18.8346 36.9773 19.7445 35.894 20.6992 34.8525L22.9106 36.8798C22.0145 37.8573 21.1606 38.8739 20.3517 39.927L17.9726 38.0994ZM97.5339 41.5711C98.2927 42.7605 99.0012 43.9852 99.6565 45.2423L96.9961 46.6289C96.3815 45.4496 95.7168 44.3007 95.0048 43.1847L97.5339 41.5711ZM13.4158 45.2423C14.071 43.9852 14.7796 42.7605 15.5384 41.5711L18.0675 43.1847C17.3555 44.3007 16.6908 45.4497 16.0762 46.6289L13.4158 45.2423ZM101.45 49.0859C101.989 50.387 102.473 51.7168 102.9 53.0723L100.038 53.9726C99.6381 52.7014 99.184 51.4543 98.6785 50.234L101.45 49.0859ZM10.1726 53.0723C10.599 51.7168 11.0832 50.387 11.6222 49.0859L14.3938 50.234C13.8883 51.4543 13.4342 52.7014 13.0343 53.9726L10.1726 53.0723ZM8.34842 61.3456C8.53229 59.9335 8.7767 58.5404 9.07899 57.169L12.0087 57.8147C11.7251 59.101 11.4958 60.4079 11.3233 61.733L8.34842 61.3456ZM103.993 57.169C104.296 58.5404 104.54 59.9335 104.724 61.3456L101.749 61.733C101.576 60.4079 101.347 59.101 101.064 57.8147L103.993 57.169ZM7.93848 67.6914C7.93848 66.9808 7.9537 66.2738 7.98386 65.5705L10.9811 65.699C10.9528 66.3595 10.9385 67.0237 10.9385 67.6914C10.9385 68.3886 10.9541 69.0822 10.985 69.7717L7.988 69.906C7.9551 69.1718 7.93848 68.4335 7.93848 67.6914ZM105.088 65.5705C105.119 66.2738 105.134 66.9809 105.134 67.6914C105.134 68.3994 105.119 69.1037 105.089 69.804L102.092 69.6764C102.12 69.0186 102.134 68.3569 102.134 67.6914C102.134 67.0237 102.119 66.3595 102.091 65.699L105.088 65.5705ZM104.728 74.0154C104.545 75.4241 104.302 76.8134 104.001 78.1809L101.071 77.5366C101.353 76.2545 101.581 74.9514 101.752 73.6297L104.728 74.0154ZM9.18236 78.6772C8.853 77.2471 8.58643 75.7931 8.3858 74.3183L11.3584 73.9139C11.5467 75.2979 11.7968 76.6622 12.1058 78.0039L9.18236 78.6772ZM102.912 82.2673C102.487 83.6187 102.005 84.9445 101.468 86.242L98.6959 85.0942C99.1997 83.8776 99.652 82.6347 100.05 81.3678L102.912 82.2673ZM11.9482 87.0874C11.3631 85.7376 10.8369 84.3559 10.3731 82.9456L13.2229 82.0083C13.658 83.3314 14.1517 84.6277 14.7007 85.8942L11.9482 87.0874ZM99.6797 90.074C99.0271 91.3267 98.3211 92.5477 97.5648 93.7345L95.0349 92.1223C95.7447 91.0084 96.407 89.8628 97.0192 88.6878L99.6797 90.074ZM16.1929 94.8556C15.3718 93.6319 14.6043 92.3682 13.8939 91.0682L16.5265 89.6296C17.1931 90.8496 17.9135 92.0355 18.6841 93.1841L16.1929 94.8556ZM95.1421 97.1974C94.7138 97.7567 94.2736 98.3068 93.8218 98.8473L92.6709 97.8854L93.8227 98.8463C93.8224 98.8466 93.8221 98.847 93.8218 98.8473M20.2607 100.107C19.77 99.5558 19.2915 98.9928 18.8257 98.4189L21.1552 96.5285C21.5917 97.0663 22.04 97.5939 22.4997 98.1107C22.9262 98.5854 23.3623 99.0512 23.8078 99.5077L21.6608 101.603C21.1855 101.116 20.7202 100.619 20.2653 100.113L20.2607 100.107ZM89.4225 103.468C88.3792 104.429 87.2937 105.345 86.169 106.212L84.3371 103.836C85.3924 103.022 86.4109 102.163 87.3899 101.261L89.4225 103.468ZM27.8246 106.949C26.7243 106.145 25.659 105.296 24.6313 104.404L26.5971 102.138C27.562 102.975 28.5621 103.772 29.5949 104.527L27.8246 106.949ZM82.6876 108.661C81.4947 109.424 80.266 110.136 79.0044 110.795L77.6161 108.135C78.7994 107.518 79.9519 106.849 81.071 106.133L82.6876 108.661ZM34.7935 111.197C33.5719 110.586 32.3797 109.926 31.2195 109.219L32.781 106.657C33.8697 107.321 34.9881 107.94 36.1341 108.513L34.7935 111.197ZM75.1472 112.596C73.8417 113.138 72.5071 113.623 71.1464 114.051L70.2466 111.189C71.5227 110.788 72.7743 110.332 73.9987 109.825L75.1472 112.596ZM42.3788 114.214C41.0688 113.818 39.7824 113.367 38.5222 112.866L39.6312 110.079C40.8131 110.549 42.0194 110.971 43.2478 111.343L42.3788 114.214ZM67.0335 115.148C65.6572 115.451 64.2588 115.695 62.8411 115.879L62.4549 112.904C63.7856 112.732 65.0978 112.502 66.3889 112.218L67.0335 115.148ZM50.3635 115.909C49.0023 115.738 47.6589 115.511 46.3356 115.23L46.9582 112.296C48.1993 112.559 49.4595 112.772 50.7367 112.932L50.3635 115.909ZM58.6024 116.244C57.897 116.274 57.1878 116.289 56.4749 116.289C55.7908 116.289 55.11 116.275 54.4328 116.247L54.5566 113.25C55.1925 113.276 55.8321 113.289 56.4749 113.289C57.1451 113.289 57.8117 113.275 58.4744 113.246L58.6024 116.244Z" fill="#D6DCE8"/>
<path d="M73.8776 70.7789C73.5221 72.2898 72.9888 73.8896 72.3667 75.2228C70.678 78.5113 68.0116 81.0888 64.7231 82.7775C61.3457 84.4661 57.3462 85.1772 53.3467 84.2884C43.9255 82.3331 37.8818 73.0897 39.8371 63.6686C41.7925 54.2474 50.9469 48.1148 60.3681 50.159C63.7454 50.8701 66.6784 52.5588 69.167 54.8696C73.3443 59.0469 75.1219 65.0906 73.8776 70.7789Z" fill="url(#paint0_linear_3941_8323)"/>
<path d="M62.4118 65.7136H58.4122V61.7141C58.4122 60.9142 57.7901 60.2031 56.9013 60.2031C56.1014 60.2031 55.3904 60.8253 55.3904 61.7141V65.7136H51.3908C50.5909 65.7136 49.8799 66.3357 49.8799 67.2245C49.8799 68.1133 50.502 68.7355 51.3908 68.7355H55.3904V72.735C55.3904 73.5349 56.0125 74.2459 56.9013 74.2459C57.7012 74.2459 58.4122 73.6238 58.4122 72.735V68.7355H62.4118C63.2117 68.7355 63.9227 68.1133 63.9227 67.2245C63.9227 66.3357 63.2117 65.7136 62.4118 65.7136Z" fill="white"/>
<path d="M77.3516 20.6135C77.3516 26.1681 75.1318 31.1054 71.6787 34.8085C71.4321 35.1788 71.0621 35.4256 70.6921 35.6725C66.9924 39.1287 62.0594 41.2271 56.6332 41.2271C52.3169 41.2271 48.2472 39.8693 44.9174 37.524C43.9308 36.9069 43.0675 36.0428 42.2043 35.3022C38.3812 31.5992 36.0381 26.4149 36.0381 20.6135C36.0381 9.25757 45.2874 0 56.6332 0C68.1023 0 77.3516 9.25757 77.3516 20.6135Z" fill="#E9F0F8"/>
<path d="M77.3516 20.6151C77.3516 26.6634 74.7618 31.971 70.6921 35.7975C66.9924 39.2537 62.0594 41.3521 56.6332 41.3521C52.3169 41.3521 48.2472 39.9943 44.9174 37.649C39.4912 33.946 36.0381 27.7743 36.0381 20.7385C36.0381 9.38257 45.2874 0.125 56.6332 0.125C67.979 0.125 77.3516 9.25914 77.3516 20.6151Z" fill="#F1F3F9"/>
<path d="M71.6795 34.8102C71.4328 35.1805 71.0629 35.4274 70.6929 35.6743C66.9932 39.1304 62.0602 41.2288 56.634 41.2288C52.3176 41.2288 48.248 39.871 44.9182 37.5258C43.9316 36.9086 43.0683 36.0446 42.2051 35.304C42.6984 34.6868 43.4383 34.3165 45.0415 33.6993L45.6582 33.4524C46.8914 32.9587 48.6179 32.3415 50.8378 31.3541C51.2077 31.2306 51.4544 30.9838 51.701 30.7369C51.8243 30.6135 51.9477 30.49 51.9477 30.2432C52.071 29.9963 52.1943 29.626 52.1943 29.3791V25.1824C52.071 25.0589 52.071 25.0589 51.9477 24.9355C51.5777 24.4417 51.331 23.8246 51.331 23.084L51.0844 22.9605C49.9745 23.2074 50.0978 22.0965 49.8512 19.8747C49.7278 19.0106 49.8512 18.7638 50.3445 18.6403L50.7144 18.1466C49.9745 16.4185 49.6045 14.8139 49.6045 13.5795C49.6045 11.4811 50.4678 10.1234 51.701 9.5062C50.9611 8.02499 50.9611 7.53125 50.9611 7.53125C50.9611 7.53125 55.2774 8.27186 56.7573 8.02499C58.6072 7.65469 61.5669 8.14842 62.6768 10.6171C64.5267 11.3577 65.1433 12.4686 65.39 13.703C65.6366 15.6779 64.5267 17.7763 64.2801 18.6403V18.7638C64.5267 18.8872 64.65 19.1341 64.5267 19.9981C64.2801 22.0965 64.2801 23.3308 63.2935 23.084L62.3069 24.812C62.3069 25.0589 62.3069 25.0589 62.1836 25.1824C62.1836 25.5527 62.1836 26.1698 62.1836 29.5026C62.1836 29.8729 62.3069 30.3666 62.5535 30.6135C62.6768 30.7369 62.6769 30.8603 62.8002 30.8603C63.0468 31.1072 63.2935 31.3541 63.5401 31.3541C66.0066 32.3415 67.7331 33.0821 69.0897 33.5759C70.3229 34.0696 71.1862 34.4399 71.6795 34.8102Z" fill="white"/>
<path d="M71.6795 34.8077C71.4328 35.178 71.0629 35.4249 70.6929 35.6717C66.9932 39.1279 62.0602 41.2263 56.634 41.2263C52.3176 41.2263 48.248 39.8685 44.9182 37.5233C43.9316 36.9061 43.0683 36.042 42.2051 35.3014C42.6984 34.6843 43.4383 34.314 45.0415 33.6968L45.6582 33.4499C46.8914 32.9562 48.6179 32.339 50.8378 31.3515C51.2077 31.2281 51.4544 30.9812 51.701 30.7344C52.9343 32.4625 54.9074 33.5734 57.2506 33.5734C59.4704 33.5734 61.4436 32.4625 62.6768 30.8578C62.9235 31.1047 63.1701 31.3515 63.4168 31.3515C65.8833 32.339 67.6098 33.0796 68.9664 33.5734C70.3229 34.0671 71.1862 34.4374 71.6795 34.8077Z" fill="#A587FF"/>
<path d="M64.1564 18.5169C64.2797 18.0232 64.0331 17.2826 63.7864 16.9123C63.7864 16.7888 63.6631 16.7888 63.6631 16.6654C62.7999 14.9373 60.95 14.3201 59.2235 14.1967C54.6605 13.9498 54.2905 14.8139 52.9339 13.5795C53.4272 14.1967 53.4272 15.3076 52.6873 16.542C52.194 17.406 51.3307 17.8997 50.4675 18.1466C48.371 13.4561 49.4809 10.4937 51.454 9.5062C50.7141 8.02499 50.7141 7.53125 50.7141 7.53125C50.7141 7.53125 55.0304 8.27186 56.5103 8.02499C58.3602 7.65469 61.32 8.14842 62.4299 10.6171C64.2797 11.3577 64.8964 12.4686 65.143 13.703C65.513 15.5545 64.4031 17.6529 64.1564 18.5169Z" fill="#AAB2C5"/>
<path d="M52.3179 29.378V25.1812C52.1946 25.0578 52.1946 25.0578 52.0713 24.9344V24.6875C52.3179 25.0578 52.5646 25.4281 52.9346 25.675L56.2643 28.0202C57.0042 28.6374 58.1142 28.6374 58.8541 28.0202L61.9372 25.3047C62.0605 25.1812 62.1839 25.1812 62.3072 25.0578C62.3072 25.4281 62.3072 26.0453 62.3072 29.378C62.3072 29.6249 62.3072 29.7483 62.4305 29.9952H52.3179C52.1946 29.7483 52.3179 29.6249 52.3179 29.378Z" fill="url(#paint1_linear_3941_8323)"/>
<path d="M114.284 96.8166C114.284 102.371 112.064 107.309 108.611 111.012C108.365 111.382 107.995 111.629 107.625 111.876C103.925 115.332 98.9921 117.43 93.5658 117.43C89.2495 117.43 85.1798 116.072 81.85 113.727C80.8634 113.11 80.0002 112.246 79.1369 111.505C75.3139 107.802 72.9707 102.618 72.9707 96.8166C72.9707 85.4607 82.22 76.2031 93.5658 76.2031C105.035 76.2031 114.284 85.4607 114.284 96.8166Z" fill="#E9F0F8"/>
<path d="M114.284 96.8182C114.284 102.866 111.694 108.174 107.625 112.001C103.925 115.457 98.9921 117.555 93.5658 117.555C89.2495 117.555 85.1798 116.197 81.85 113.852C76.4238 110.149 72.9707 103.977 72.9707 96.9416C72.9707 85.5857 82.22 76.3281 93.5658 76.3281C104.912 76.3281 114.284 85.4623 114.284 96.8182Z" fill="#F1F3F9"/>
<path d="M108.612 111.013C108.365 111.384 107.995 111.631 107.626 111.877C103.926 115.334 98.9928 117.432 93.5666 117.432C89.2503 117.432 85.1806 116.074 81.8508 113.729C80.8642 113.112 80.001 112.248 79.1377 111.507C79.631 110.89 80.3709 110.52 81.9741 109.902L82.5908 109.656C83.824 109.162 85.5505 108.545 87.7704 107.557C88.1403 107.434 88.387 107.187 88.6336 106.94C88.757 106.817 88.8803 106.693 88.8803 106.446C89.0036 106.199 89.1269 105.829 89.1269 105.582V101.385C89.0036 101.262 89.0036 101.262 88.8803 101.139C88.5103 100.645 88.2637 100.028 88.2637 99.2871L88.017 99.1637C86.9071 99.4105 87.0304 98.2996 86.7838 96.0778C86.6605 95.2138 86.7838 94.9669 87.2771 94.8435L87.647 94.3497C86.9071 92.6216 86.5371 91.017 86.5371 89.7827C86.5371 87.6843 87.4004 86.3265 88.6336 85.7093C87.8937 84.2281 87.8937 83.7344 87.8937 83.7344C87.8937 83.7344 92.21 84.475 93.6899 84.2281C95.5398 83.8578 98.4995 84.3515 99.6095 86.8202C101.459 87.5608 102.076 88.6717 102.323 89.9061C102.569 91.881 101.459 93.9794 101.213 94.8435V94.9669C101.459 95.0903 101.583 95.3372 101.459 96.2012C101.213 98.2996 101.213 99.534 100.226 99.2871L99.2395 101.015C99.2395 101.262 99.2395 101.262 99.1162 101.385C99.1162 101.756 99.1162 102.373 99.1162 105.706C99.1162 106.076 99.2395 106.57 99.4861 106.817C99.6095 106.94 99.6095 107.063 99.7328 107.063C99.9794 107.31 100.226 107.557 100.473 107.557C102.939 108.545 104.666 109.285 106.022 109.779C107.256 110.273 108.119 110.643 108.612 111.013Z" fill="white"/>
<path d="M108.611 111.011C108.364 111.381 107.995 111.628 107.625 111.875C103.925 115.331 98.9919 117.429 93.5656 117.429C89.2493 117.429 85.1796 116.072 81.8499 113.726C80.8633 113.109 80 112.245 79.1367 111.505C79.63 110.887 80.37 110.517 81.9732 109.9L82.5898 109.653C83.823 109.159 85.5496 108.542 87.7694 107.555C88.1394 107.431 88.386 107.184 88.6327 106.938C89.8659 108.666 91.8391 109.776 94.1822 109.776C96.4021 109.776 98.3752 108.666 99.6085 107.061C99.8551 107.308 100.102 107.555 100.348 107.555C102.815 108.542 104.541 109.283 105.898 109.776C107.255 110.27 108.118 110.641 108.611 111.011Z" fill="#A587FF"/>
<path d="M101.088 94.72C101.211 94.2263 100.965 93.4857 100.718 93.1154C100.718 92.9919 100.595 92.9919 100.595 92.8685C99.7315 91.1404 97.8816 90.5233 96.1551 90.3998C91.5921 90.153 91.2221 91.017 89.8656 89.7827C90.3589 90.3998 90.3589 91.5107 89.6189 92.7451C89.1256 93.6091 88.2624 94.1029 87.3991 94.3497C85.3026 89.6592 86.4125 86.6968 88.3857 85.7093C87.6457 84.2281 87.6457 83.7344 87.6457 83.7344C87.6457 83.7344 91.9621 84.475 93.442 84.2281C95.2918 83.8578 98.2516 84.3515 99.3615 86.8202C101.211 87.5608 101.828 88.6717 102.075 89.9061C102.445 91.7576 101.335 93.856 101.088 94.72Z" fill="#AAB2C5"/>
<path d="M89.2496 105.581V101.384C89.1263 101.261 89.1263 101.261 89.0029 101.137V100.891C89.2496 101.261 89.4962 101.631 89.8662 101.878L93.1959 104.223C93.9359 104.841 95.0458 104.841 95.7857 104.223L98.8688 101.508C98.9922 101.384 99.1155 101.384 99.2388 101.261C99.2388 101.631 99.2388 102.248 99.2388 105.581C99.2388 105.828 99.2388 105.951 99.3621 106.198H89.2496C89.1263 105.951 89.2496 105.828 89.2496 105.581Z" fill="url(#paint2_linear_3941_8323)"/>
<path d="M40.2036 97.1226C40.2036 102.924 37.7371 108.108 33.7908 111.811C32.6808 112.799 31.5709 113.663 30.2144 114.403C27.2546 116.131 23.8015 117.119 20.1018 117.119C16.4021 117.119 12.949 116.131 9.98924 114.403C9.49594 114.157 9.12597 113.91 8.63268 113.539C3.45307 109.96 0 103.911 0 97.1226C0 86.0135 9.00265 77.1263 19.9785 77.1263C31.201 77.0028 40.2036 86.0135 40.2036 97.1226Z" fill="#F1F3F9"/>
<path d="M16.0318 101.56C16.2785 101.807 16.5251 102.178 16.8951 102.425C17.1418 102.671 17.3884 102.795 17.635 103.042C17.7584 103.165 18.005 103.289 18.1283 103.412C18.1283 103.412 18.2517 103.412 18.2517 103.535L18.375 103.659V105.387C18.375 105.387 18.375 105.387 18.2517 105.264C18.1283 105.14 17.8817 105.017 17.7584 104.893C17.5117 104.77 17.2651 104.523 17.0184 104.399C16.8951 104.399 16.8951 104.276 16.7718 104.276C15.9085 103.782 15.1686 103.289 15.1686 102.671C15.2919 102.425 15.5385 102.054 16.0318 101.56ZM33.1873 111.108C32.4473 109.503 31.4473 107.979 29.7208 107.115C28.8575 106.745 27.8709 106.374 26.8843 106.374C26.6377 106.374 26.2677 106.374 26.0211 106.374C25.8978 106.374 25.7744 106.374 25.6511 106.374C24.2945 106.251 24.1712 106.004 24.1712 106.004V103.165C25.0345 102.425 25.8978 101.561 26.6377 100.696C27.2543 99.8324 27.7476 98.8449 27.9943 97.6106C29.1042 97.3637 29.8441 96.3763 29.7208 95.1419C29.7208 94.6482 29.3508 94.1544 29.3508 93.6607C29.3508 93.4138 29.3508 93.167 29.3508 92.9201C29.3508 92.7967 29.3508 92.5498 29.3508 92.4264C29.3508 92.3029 29.3508 92.0561 29.3508 91.9326C29.2275 91.0686 28.9808 90.2045 28.4876 89.2171C27.0077 86.5015 24.2945 84.7734 21.0881 84.7734C20.4715 84.7734 19.8549 84.8969 19.2383 85.0203C18.1283 85.2672 17.0184 85.7609 16.1552 86.5015C16.0318 86.625 15.7852 86.7484 15.6619 86.9952L15.5385 87.1187C14.5519 88.1062 13.6887 89.2171 13.3187 90.5748C12.8254 91.9326 12.8254 93.2904 12.9487 94.6482C12.9487 94.6482 12.9487 94.6482 12.9487 94.7716V94.895C12.9487 95.1419 13.0721 95.1419 12.9487 95.2654C12.9487 95.3888 12.8254 95.3888 12.8254 95.5122C12.5788 95.8825 12.4554 96.3763 12.7021 97.1169C13.1954 98.3512 13.9353 98.2278 14.7986 98.8449C14.7986 98.8449 14.6753 98.8449 14.6753 98.9684L13.812 99.2152C9.86564 100.45 8.50908 103.782 10.2356 105.881C10.8522 106.621 11.8388 107.238 13.3187 107.609C12.9487 107.609 12.5788 107.856 12.3321 108.103C10.6056 109.46 9.49567 111.559 9.24902 113.534C9.24902 113.657 9.24902 113.78 9.24902 113.904C9.74232 114.151 10.1123 114.521 10.6056 114.768L29.917 114.316C31.1502 113.576 31.6958 113.004 32.8058 112.017C32.6824 111.399 33.3106 111.231 33.1873 111.108Z" fill="white"/>
<path d="M33.7909 111.803C32.681 112.79 31.5711 113.654 30.2145 114.395C27.2547 116.123 23.8017 117.111 20.1019 117.111C16.4022 117.111 12.9491 116.123 9.98937 114.395C9.49608 114.148 9.12611 113.901 8.63281 113.531C8.63281 113.408 8.63281 113.284 8.63281 113.161C8.87946 111.186 9.98938 109.087 11.7159 107.73C11.9626 107.483 12.3325 107.359 12.7025 107.236C11.2226 106.989 10.236 106.372 9.6194 105.508H14.3057C15.6623 107.359 17.7588 108.47 20.2253 108.47C22.3218 108.47 24.1716 107.606 25.5282 106.248C25.6515 106.248 25.7748 106.248 25.8982 106.248C26.1448 106.248 26.3915 106.248 26.7614 106.248C27.748 106.248 28.7346 106.495 29.5979 106.989C31.3244 107.853 32.5576 109.334 33.4209 111.062C33.6676 111.309 33.6676 111.556 33.7909 111.803Z" fill="#A587FF"/>
<path d="M24.2948 103.164V105.756L16.5254 106.003L16.8954 104.275C17.0187 104.275 17.0187 104.398 17.142 104.398C17.3887 104.522 17.6353 104.769 17.882 104.892C18.0053 105.016 18.1286 105.139 18.3752 105.262C18.3752 105.262 18.4986 105.262 18.4986 105.386V103.658L18.3752 103.534C19.7318 104.275 21.5817 104.769 24.2948 103.164Z" fill="url(#paint3_linear_3941_8323)"/>
<path d="M29.351 92.4295C27.8711 92.9232 26.1446 93.1701 24.5414 93.0466C21.9516 92.7998 19.4851 91.8123 17.5119 90.0842C16.8953 91.9357 15.2921 93.2935 13.4422 94.1576C13.1956 94.281 12.949 94.4044 12.7023 94.4044C12.7023 94.4044 12.7023 94.4044 12.7023 94.281C12.579 92.9232 12.579 91.5654 13.0723 90.2077C13.4422 88.8499 14.3055 87.739 15.2921 86.7515L15.4154 86.6281C15.5388 86.5046 15.7854 86.3812 15.9087 86.1343C16.772 85.3937 17.8819 84.9 18.9918 84.6531C19.6084 84.5297 20.2251 84.4062 20.8417 84.4062C24.0481 84.4062 26.8846 86.1343 28.2411 88.8499C28.7344 89.8374 28.9811 90.8248 29.1044 91.5654C29.351 92.0592 29.351 92.306 29.351 92.4295Z" fill="#AAB2C5"/>
<path d="M19.4858 110.698C18.7458 111.562 17.5126 111.562 16.4027 111.562C17.5126 110.451 16.896 106.872 12.9496 107.242C7.52335 106.254 8.01665 100.577 13.4429 98.8484L14.3062 98.6016L14.4295 98.725C14.7995 99.8359 15.4161 100.823 16.0327 101.564C13.8129 103.416 16.896 103.909 18.3759 105.39C19.6091 106.131 20.719 109.217 19.4858 110.698Z" fill="#AAB2C5"/>
<defs>
<linearGradient id="paint0_linear_3941_8323" x1="39.4538" y1="67.2232" x2="74.2738" y2="67.2232" gradientUnits="userSpaceOnUse">
<stop stop-color="#D5C8FF"/>
<stop offset="1" stop-color="#A587FF"/>
</linearGradient>
<linearGradient id="paint1_linear_3941_8323" x1="57.2309" y1="29.8299" x2="57.2309" y2="27.0497" gradientUnits="userSpaceOnUse">
<stop stop-color="white"/>
<stop offset="0.9913" stop-color="#D6DEEA"/>
</linearGradient>
<linearGradient id="paint2_linear_3941_8323" x1="94.1625" y1="106.033" x2="94.1625" y2="103.253" gradientUnits="userSpaceOnUse">
<stop stop-color="white"/>
<stop offset="0.9913" stop-color="#D6DEEA"/>
</linearGradient>
<linearGradient id="paint3_linear_3941_8323" x1="20.3951" y1="105.915" x2="20.3951" y2="104.428" gradientUnits="userSpaceOnUse">
<stop stop-color="white"/>
<stop offset="0.9913" stop-color="#D6DEEA"/>
</linearGradient>
</defs>
</svg>
