<svg width="100" height="100" viewBox="0 0 100 100" fill="none" xmlns="http://www.w3.org/2000/svg">
<g clip-path="url(#clip0_3875_8750)">
<rect width="100" height="100" fill="white"/>
<path d="M74.7353 49.7378C74.7353 63.6248 63.4783 74.8818 49.5913 74.8818C35.7043 74.8818 24.4473 63.6248 24.4473 49.7378C24.4473 35.8507 35.7043 24.5938 49.5913 24.5938C63.4783 24.5938 74.7353 35.8507 74.7353 49.7378Z" fill="#C1ADFF"/>
<path d="M59.6173 42.114C59.9704 42.4676 60.1688 42.9469 60.1688 43.4466C60.1688 43.9464 59.9704 44.4257 59.6173 44.7793L47.0453 57.3513C46.6917 57.7044 46.2124 57.9028 45.7126 57.9028C45.2129 57.9028 44.7336 57.7044 44.38 57.3513L39.3512 52.3225C39.1659 52.1498 39.0173 51.9417 38.9142 51.7103C38.8112 51.479 38.7557 51.2293 38.7513 50.9761C38.7468 50.7229 38.7934 50.4714 38.8882 50.2365C38.9831 50.0017 39.1242 49.7884 39.3033 49.6094C39.4824 49.4303 39.6957 49.2891 39.9305 49.1943C40.1653 49.0994 40.4168 49.0528 40.67 49.0573C40.9233 49.0618 41.173 49.1172 41.4043 49.2203C41.6356 49.3233 41.8438 49.4719 42.0165 49.6572L45.7126 53.3534L51.3323 47.7337L56.952 42.114C57.3056 41.7609 57.7849 41.5625 58.2846 41.5625C58.7844 41.5625 59.2637 41.7609 59.6173 42.114Z" fill="white"/>
<path d="M72.6728 26.552C67.1994 21.0786 59.9576 17.7305 52.2423 17.1063C44.5269 16.4821 36.8411 18.6225 30.559 23.1448C24.2769 27.6671 19.8082 34.2765 17.9518 41.7911C16.0954 49.3058 16.9724 57.2357 20.4261 64.1631" stroke="#C6CAD1" stroke-width="1.5" stroke-linecap="round"/>
<path d="M24.625 69.5701C29.9584 75.9294 37.5158 80.016 45.7573 80.9972C53.9989 81.9784 62.3045 79.7804 68.9819 74.851C75.6592 69.9216 80.2059 62.6318 81.6956 54.4668C83.1852 46.3018 81.5057 37.876 76.9992 30.9062" stroke="#C6CAD1" stroke-width="1.5" stroke-linecap="round"/>
<path d="M89.7352 25.2581C89.8986 24.6711 91.3018 24.6711 91.4651 25.2581C91.9274 26.9189 92.6002 28.6846 93.5418 29.8006C94.6218 31.0806 96.4231 31.9415 97.9849 32.4875C98.5337 32.6793 98.5337 33.8944 97.9849 34.0863C96.4231 34.6322 94.6218 35.4931 93.5418 36.7732C92.6002 37.8891 91.9274 39.6548 91.4651 41.3156C91.3018 41.9026 89.8986 41.9026 89.7352 41.3156C89.273 39.6548 88.6002 37.8891 87.6586 36.7732C86.5786 35.4931 84.7773 34.6322 83.2155 34.0863C82.6667 33.8944 82.6667 32.6793 83.2155 32.4875C84.7773 31.9415 86.5786 31.0807 87.6586 29.8006C88.6002 28.6846 89.273 26.9189 89.7352 25.2581Z" fill="#794CFF"/>
<path d="M15.849 70.4708C16.0049 69.8864 17.3227 69.8864 17.4786 70.4708C18.0253 72.5203 18.882 74.8688 20.1501 76.2822C21.5115 77.7995 23.8396 78.7884 25.7649 79.3887C26.3253 79.5634 26.3253 80.7725 25.7649 80.9473C23.8396 81.5476 21.5115 82.5364 20.1501 84.0537C18.882 85.4672 18.0253 87.8156 17.4786 89.8652C17.3227 90.4495 16.0049 90.4495 15.849 89.8652C15.3023 87.8156 14.4456 85.4672 13.1775 84.0537C11.8162 82.5364 9.48804 81.5476 7.56273 80.9473C7.00231 80.7725 7.00231 79.5634 7.56273 79.3887C9.48804 78.7884 11.8162 77.7995 13.1775 76.2822C14.4456 74.8688 15.3023 72.5203 15.849 70.4708Z" fill="#794CFF"/>
<path d="M14.8516 14.6861C15.0402 14.1004 16.624 14.1004 16.8126 14.6861C17.1299 15.6716 17.536 16.612 18.0473 17.2743C18.7575 18.1939 19.8815 18.8506 20.9381 19.3015C21.4649 19.5263 21.4649 20.7601 20.9381 20.9849C19.8815 21.4358 18.7575 22.0925 18.0473 23.0121C17.536 23.6744 17.1299 24.6148 16.8126 25.6003C16.624 26.1861 15.0402 26.1861 14.8516 25.6003C14.5343 24.6148 14.1282 23.6744 13.6168 23.0121C12.9067 22.0925 11.7827 21.4358 10.7261 20.9849C10.1993 20.7601 10.1993 19.5263 10.7261 19.3015C11.7827 18.8506 12.9067 18.1939 13.6168 17.2743C14.1282 16.612 14.5343 15.6716 14.8516 14.6861Z" fill="#794CFF"/>
</g>
<defs>
<clipPath id="clip0_3875_8750">
<rect width="100" height="100" fill="white"/>
</clipPath>
</defs>
</svg>
