<svg width="390" height="311" viewBox="0 0 390 311" fill="none" xmlns="http://www.w3.org/2000/svg">
<g clip-path="url(#clip0_1874_9607)">
<rect y="0.0820312" width="390" height="310" rx="24" fill="#6E45E8"/>
<path d="M-43.9068 68.268C-61.9306 40.9609 -54.405 4.21301 -27.0979 -13.8108C0.209196 -31.8346 36.9572 -24.3091 54.981 2.998L198.366 220.234C216.389 247.541 208.864 284.289 181.557 302.312C154.25 320.336 117.502 312.811 99.4778 285.504L-43.9068 68.268Z" fill="url(#paint0_linear_1874_9607)" fill-opacity="0.44"/>
<rect x="402.571" y="58.8203" width="116.518" height="471.044" rx="58.2589" transform="rotate(55.7451 402.571 58.8203)" fill="url(#paint1_linear_1874_9607)" fill-opacity="0.44"/>
<path d="M205.662 100.094C205.506 99.8496 205.276 99.5981 204.935 99.4457C204.103 99.0741 202.962 98.6161 202.875 98.7997C202.788 98.9826 203.783 99.5141 203.783 99.5141C203.783 99.5141 202.782 99.5054 202.219 99.5851C201.656 99.6647 201.024 99.8477 201.084 100.025C201.145 100.202 202.338 100.113 202.338 100.113C202.338 100.113 200.949 100.233 201.027 100.505C201.105 100.777 202.548 100.526 202.548 100.526C202.548 100.526 201.415 100.792 201.555 101.067C201.695 101.341 202.967 100.935 202.967 100.935C202.967 100.935 202.172 101.271 202.298 101.518C202.391 101.7 203.619 101.386 204.288 101.309C204.993 101.228 205.441 101.082 205.531 101.058C206.028 100.929 205.912 100.331 205.662 100.094Z" fill="#FFCCD7"/>
<path d="M216.701 100.488C216.701 100.488 211.2 101.29 205.256 100.916C204.489 100.548 204.12 99.5078 204.969 99.3224C208.482 98.5556 214.734 97.0931 215.971 97.1055C217.206 97.1174 217.427 98.9434 216.701 100.488Z" fill="#E8E8E8"/>
<path d="M166.837 234.715L171.466 236.272L176.111 241.599L167.124 265.579C167.124 265.579 174.593 268.349 178.81 269.551C183.027 270.752 227.336 278.295 245.514 223.511C263.718 168.646 224.86 146.383 218.444 144.629C207.242 158.04 207.119 174.859 207.119 174.859C207.119 174.859 217.854 179.056 217.854 190.926C217.854 199.473 213.92 219.242 206.194 232.705C202.078 239.876 196.46 243.877 189.62 243.462C181.448 242.967 179.705 235.679 179.705 235.679L168.008 231.588L166.837 234.715Z" fill="#B6AFED"/>
<path d="M168.982 259.015L157.83 255.492L157.22 257.121L168.372 260.644L168.982 259.015Z" fill="#F1F0FC"/>
<path d="M169.79 258.462L168.721 258.125L167.568 261.205L168.636 261.542L169.79 258.462Z" fill="#B9B2F0"/>
<path d="M218.438 144.632L197.242 137.938L185.916 168.167L207.112 174.862L218.438 144.632Z" fill="#F1F0FC"/>
<path d="M218.446 144.633L217.481 144.328L206.154 174.558L207.12 174.863L218.446 144.633Z" fill="#B9B2F0"/>
<path d="M202.326 139.543L197.244 137.938L185.917 168.167L191 169.773L202.326 139.543Z" fill="#B9B2F0"/>
<path opacity="0.21" d="M230.138 216.672C241.001 179.011 226.015 164.18 212.9 159.678C205.042 156.98 193.183 153.181 191.713 152.711L185.923 168.165L207.119 174.86C207.119 174.86 217.854 179.057 217.854 190.927C217.854 199.474 213.92 219.243 206.194 232.706C202.078 239.876 196.46 243.878 189.62 243.463C181.448 242.968 179.705 235.68 179.705 235.68L168.008 231.588L166.837 234.715L171.466 236.272L176.111 241.599L171.634 253.545C175.821 254.869 181.607 256.622 187.191 258.063C199.873 261.336 220.234 251.009 230.138 216.672Z" fill="#F1F0FC"/>
<path d="M158.659 237.08L146.035 233.093C142.22 231.888 140.192 228.073 141.504 224.571L141.904 223.504L168.34 231.853L167.94 232.921C166.629 236.422 162.473 238.285 158.659 237.08Z" fill="#B6AFED"/>
<path d="M210.756 98.1598L197.673 94.0273L185.405 126.771L198.488 130.904L210.756 98.1598Z" fill="#B6AFED"/>
<path d="M212.343 96.066L197.832 91.4823C197.568 91.3989 197.279 91.5284 197.188 91.7711L196.139 94.5705C196.049 94.8132 196.189 95.0777 196.454 95.1617L210.965 99.7447C211.23 99.8281 211.518 99.6993 211.609 99.4565L212.658 96.6572C212.748 96.4139 212.608 96.1494 212.343 96.066Z" fill="#B9B2F0"/>
<path d="M196.091 137.304L183.008 133.172L161.524 190.512L174.607 194.645L196.091 137.304Z" fill="#F1F0FC"/>
<path d="M196.09 137.304L183.007 133.172L164.265 183.194L177.348 187.326L196.09 137.304Z" fill="#9089DF"/>
<path d="M175.643 193.445L161.522 188.985C161.149 188.867 160.744 189.049 160.616 189.391L159.702 191.832C159.573 192.174 159.771 192.546 160.144 192.664L174.265 197.124C174.637 197.241 175.043 197.059 175.171 196.717L176.085 194.277C176.213 193.935 176.015 193.562 175.643 193.445Z" fill="#B9B2F0"/>
<path d="M205 125.636L183.805 118.941L162.321 176.282L183.516 182.976L205 125.636Z" fill="#F1F0FC"/>
<path d="M202.139 121.306L188.954 117.176L183.81 118.932L205.006 125.626L202.139 121.306Z" fill="#B9B2F0"/>
<path d="M185.985 181.342L161.477 173.602C160.989 173.447 160.458 173.686 160.29 174.134L159.17 177.122C159.002 177.57 159.261 178.058 159.749 178.213L184.257 185.953C184.745 186.107 185.276 185.869 185.444 185.421L186.564 182.432C186.733 181.984 186.473 181.496 185.985 181.342Z" fill="#B9B2F0"/>
<path d="M209.298 156.571C209.756 153.988 207.847 151.553 205.033 151.132C202.219 150.712 199.567 152.466 199.109 155.049C198.652 157.632 200.561 160.067 203.375 160.488C206.189 160.908 208.841 159.155 209.298 156.571Z" fill="#B9B2F0"/>
<path opacity="0.21" d="M175.171 196.724L176.085 194.284C176.213 193.941 176.015 193.569 175.643 193.452L175.124 193.288L177.356 187.33L178.546 184.155L184.258 185.959C184.746 186.113 185.277 185.875 185.445 185.427L186.565 182.438C186.733 181.99 186.473 181.502 185.985 181.348L184.329 180.825L205.006 125.633L202.139 121.313L202.094 121.3L210.251 99.5249L210.965 99.7502C211.229 99.8336 211.517 99.7047 211.609 99.462L212.658 96.6627C212.748 96.42 212.608 96.1555 212.343 96.0721L205.621 93.9492L167.738 195.07L174.264 197.132C174.637 197.248 175.043 197.066 175.171 196.724Z" fill="#B9B2F0"/>
<path d="M158.232 259.178L133.584 251.392C133.135 251.251 132.896 250.801 133.05 250.389L134.218 247.271C134.373 246.859 134.862 246.64 135.311 246.781L159.959 254.566C160.409 254.708 160.647 255.158 160.493 255.57L159.325 258.688C159.171 259.1 158.682 259.319 158.232 259.178Z" fill="#B6AFED"/>
<path d="M182.644 228.917L132.655 213.128C130.427 212.424 128 213.512 127.233 215.559C126.467 217.604 127.651 219.833 129.88 220.537L179.869 236.325C182.097 237.029 184.525 235.941 185.291 233.895C186.057 231.849 184.872 229.62 182.644 228.917Z" fill="#F1F0FC"/>
<path opacity="0.21" d="M129.88 220.535L179.869 236.323C181.879 236.958 184.048 236.131 185.016 234.462L127.069 216.16C126.713 218.023 127.869 219.899 129.88 220.535Z" fill="#B9B2F0"/>
<path d="M207.903 142.874C208.969 138.705 206.152 134.532 201.612 133.554C197.071 132.575 192.526 135.162 191.461 139.33C190.395 143.499 193.212 147.672 197.752 148.651C202.293 149.629 206.837 147.043 207.903 142.874Z" fill="#B9B2F0"/>
<path d="M199.616 144.678C201.643 144.678 203.287 143.169 203.287 141.308C203.287 139.446 201.643 137.938 199.616 137.938C197.589 137.938 195.946 139.446 195.946 141.308C195.946 143.169 197.589 144.678 199.616 144.678Z" fill="#E5E3F9"/>
<path d="M206.444 155.802C206.444 156.94 205.439 157.862 204.2 157.862C202.961 157.862 201.957 156.94 201.957 155.802C201.957 154.665 202.962 153.742 204.2 153.742C205.439 153.743 206.444 154.665 206.444 155.802Z" fill="#E5E3F9"/>
<path d="M182.627 240.535L172.52 267.514C172.837 267.623 173.157 267.734 173.481 267.845L183.447 241.246C183.153 241.017 182.879 240.779 182.627 240.535Z" fill="#B9B2F0"/>
<path d="M208.189 260.238C211.478 268.22 222.956 297.518 222.956 297.518H183.135C183.135 297.518 182.334 272.933 182.193 265.184C182.069 258.454 185.319 252.143 192.498 250.777C199.677 249.412 204.898 252.257 208.189 260.238Z" fill="#F1F0FC"/>
<path d="M194.976 265.903C198.55 265.903 201.447 263.243 201.447 259.961C201.447 256.68 198.55 254.02 194.976 254.02C191.402 254.02 188.505 256.68 188.505 259.961C188.505 263.243 191.402 265.903 194.976 265.903Z" fill="#B9B2F0"/>
<path d="M194.976 262.541C196.53 262.541 197.789 261.384 197.789 259.958C197.789 258.531 196.53 257.375 194.976 257.375C193.423 257.375 192.163 258.531 192.163 259.958C192.163 261.384 193.423 262.541 194.976 262.541Z" fill="#E5E3F9"/>
<path d="M262.204 310.663H127V308.644C127 302.019 131.665 296.648 137.42 296.648H251.785C257.54 296.648 262.205 302.019 262.205 308.644V310.663H262.204Z" fill="#EAE8FF"/>
<path d="M255.144 274.328H228.47V275.975H255.144V274.328Z" fill="#2E343B"/>
<path d="M252.976 256.27H226.303V257.917H252.976V256.27Z" fill="#2E343B"/>
<path d="M250.809 238.203H224.135V239.85H250.809V238.203Z" fill="#2E343B"/>
<path d="M248.642 220.141H221.969V221.788H248.642V220.141Z" fill="#2E343B"/>
<path d="M233.748 313.503L221.36 204.835C221.299 204.298 220.806 203.891 220.219 203.891C219.537 203.891 219.007 204.432 219.077 205.054L231.466 313.722C231.527 314.258 232.019 314.666 232.607 314.666C233.288 314.666 233.819 314.125 233.748 313.503Z" fill="#2E343B"/>
<path d="M261.062 313.503L248.673 204.835C248.612 204.298 248.119 203.891 247.532 203.891C246.851 203.891 246.32 204.432 246.39 205.054L258.779 313.722C258.84 314.258 259.333 314.666 259.92 314.666C260.601 314.666 261.132 314.125 261.062 313.503Z" fill="#2E343B"/>
<path d="M257.312 292.391H230.638V294.038H257.312V292.391Z" fill="#2E343B"/>
<path d="M248.684 229.757C249.33 229.393 249.984 229.026 250.488 228.51C250.963 228.02 251.301 227.373 251.255 226.727C251.421 226.727 251.588 226.834 251.671 226.975C251.78 227.155 251.776 227.373 251.755 227.576C251.738 227.737 251.709 227.893 251.671 228.05C251.825 228.173 251.896 228.371 251.922 228.559C251.947 228.796 251.917 229.037 251.972 229.271C252.03 229.52 252.189 229.741 252.267 229.982C252.455 230.563 252.192 231.203 252.359 231.78L252.384 231.773C252.513 232.197 252.642 232.595 252.776 232.974C252.188 233.077 251.605 233.195 251.025 233.325C250.688 232.954 250.346 232.587 250.005 232.22C249.555 231.742 249.025 231.333 248.433 231.011C248.371 230.977 248.309 230.942 248.242 230.908H248.238C247.75 230.078 247.571 229.087 247.409 228.139C247.396 228.062 247.384 227.971 247.442 227.909C247.521 227.821 247.675 227.848 247.783 227.905C248.15 228.108 248.3 228.525 248.391 228.912C248.463 229.199 248.53 229.504 248.684 229.757Z" fill="#DEA38D"/>
<path d="M252.58 232.45C253.833 234.576 253.757 241.016 251.551 242.467C249.045 240.641 249.829 233 249.829 233C249.829 233 251.545 231.524 252.58 232.45Z" fill="#E8E8E8"/>
<path d="M245.367 223.23H243.931C242.996 223.23 242.237 223.926 242.237 224.785V229.074C242.237 229.932 242.996 230.628 243.931 230.628H245.367C246.302 230.628 247.059 229.932 247.059 229.074V224.785C247.059 223.926 246.302 223.23 245.367 223.23Z" fill="#E49B82"/>
<path d="M239.173 289.77L239.502 292.446H234.268L237.741 289.79L239.173 289.77Z" fill="#2E343B"/>
<path d="M236.759 253.367C236.759 253.367 236.994 249.098 241.699 249.098C246.403 249.098 245.759 253.367 245.759 253.367L239.419 290.24H236.983L236.759 253.367Z" fill="#E5E3F9"/>
<path d="M238.636 219.923C238.636 223.289 241.791 227.273 245.684 227.273C249.576 227.273 252.731 223.289 252.731 219.923C252.731 216.557 252.233 214.078 245.684 214.078C239.134 214.079 238.636 216.557 238.636 219.923Z" fill="#54363F"/>
<path d="M251.296 289.77L251.625 292.446H246.39L249.863 289.79L251.296 289.77Z" fill="#2E343B"/>
<path d="M243.849 253.878C243.849 253.878 243.507 249.668 248.212 249.668C252.916 249.668 252.849 253.878 252.849 253.878L251.491 290.24H249.056L243.849 253.878Z" fill="#E5E3F9"/>
<path d="M252.908 249.562V253.788C252.908 253.788 251.266 259.721 244.968 259.813C244.725 259.812 244.487 259.807 244.258 259.8C238.302 259.461 236.732 253.789 236.732 253.789V249.563L252.908 249.562Z" fill="#394C5B"/>
<path d="M244.632 215.961C241.946 215.961 239.833 216.998 238.838 219.293C238.562 219.929 237.957 223.158 237.87 223.87C237.517 226.723 240.528 227.905 243.958 227.905C247.388 227.905 250.32 225.231 250.505 221.932C250.692 218.634 248.063 215.961 244.632 215.961Z" fill="#FFCCD7"/>
<path d="M241.713 215.309C247.051 215.309 249.191 217.066 249.191 217.066L251.393 220.989L250.597 224.727C250.597 224.727 249.342 226.619 248.377 227.057C247.412 227.495 245.315 227.752 243.662 227.079C242.009 226.405 240.367 223.033 240.367 223.033L239.76 219.568C239.76 219.568 236.157 219.451 238.063 218.575C239.173 218.066 238.853 216.366 240.1 215.366C240.603 215.33 241.139 215.309 241.713 215.309Z" fill="#54363F"/>
<path d="M240.359 220.633C239.688 220.633 239.107 221.45 239.063 222.457C239.019 223.463 239.528 224.279 240.199 224.279C240.87 224.279 241.45 223.463 241.495 222.457C241.539 221.449 241.03 220.633 240.359 220.633Z" fill="#FFCCD7"/>
<path d="M249.333 215.87C249.333 217.129 251.733 222.151 252.155 222.151C252.578 222.151 252.934 218.185 252.934 216.925C252.934 215.666 251.995 214.543 251.026 214.543C249.325 214.543 249.333 214.611 249.333 215.87Z" fill="#54363F"/>
<path d="M239.293 216.334C239.293 216.742 243.096 216.783 245.586 216.783C248.077 216.783 250.095 216.57 250.095 214.905C250.095 213.24 248.076 213.027 245.586 213.027C240.993 213.027 239.293 215.924 239.293 216.334Z" fill="#54363F"/>
<path d="M218.442 233.394C219.927 234.08 221.051 234.971 221.857 234.536C222.664 234.1 220.295 230.727 219.759 230.077C219.223 229.427 217.932 229.717 217.162 231.48C216.873 232.155 217.224 232.832 218.442 233.394Z" fill="#FFCCD7"/>
<path d="M219.69 231.438C219.798 231.438 219.906 231.408 220 231.344C220.234 231.187 220.285 230.885 220.113 230.67L218.18 228.251C218.009 228.036 217.68 227.989 217.446 228.148C217.212 228.305 217.161 228.607 217.333 228.822L219.266 231.241C219.369 231.37 219.528 231.439 219.69 231.438Z" fill="#FFCCD7"/>
<path d="M238.614 233.307L229.297 240.28C228.085 241.186 227.955 242.773 228.878 243.703C229.801 244.633 231.416 244.541 232.627 243.634L243.91 236.088C246.063 234.514 244.949 232.884 243.777 232.052C241.842 230.68 239.826 232.4 238.614 233.307Z" fill="white"/>
<path d="M228.018 243.918L219.014 233.839L221.271 232.006L231.237 240.098C232.382 241.075 232.975 243.341 231.964 244.047C230.95 244.752 229.028 245.012 228.018 243.918Z" fill="white"/>
<path d="M243.915 228.949C246.97 228.579 249.23 229.263 250.419 232.656C251.817 236.642 253.003 267.884 253.003 267.884C253.003 267.884 250.673 270.214 246.618 270.381C246.495 269.732 245.726 265.027 245.726 265.027C245.726 265.027 245.118 269.613 244.935 270.331C241.333 269.978 235.929 268.141 235.929 268.141C235.929 268.141 236.445 250.029 237.208 242.565C237.871 236.047 238.178 229.644 243.915 228.949Z" fill="white"/>
<path d="M221.892 89.2553C221.787 91.5418 219.531 97.4722 218.859 99.1121C217.727 101.873 213.947 101.073 214.773 97.7105C215.63 94.2247 217.289 90.3089 218.099 89.1289C219.09 87.6863 222.003 86.8144 221.892 89.2553Z" fill="#E8E8E8"/>
<path d="M223.455 111.698C223.455 111.698 211.686 117.534 209.749 118.691C207.812 119.848 204.539 118.436 206.831 115.976C209.907 112.674 215.232 107.911 215.232 107.911C215.232 107.911 222.032 106.849 223.455 111.698Z" fill="#2E343B"/>
<path d="M215.232 107.902L215.998 106.586L227.561 106.996C227.561 106.996 228.119 108.253 227.924 109.432C226.332 110.791 218.013 109.296 215.232 107.902Z" fill="#695AE0"/>
<path d="M227.924 108.668C228.104 110.577 229.554 147.139 229.554 147.139C229.554 147.139 228.453 147.349 226.751 147.223C225.449 138.102 220.275 108.812 220.275 108.812L227.924 108.668Z" fill="#2E343B"/>
<path d="M208.179 136.939C208.179 136.939 208.978 136.022 208.915 135.356C208.852 134.69 207.674 134.922 207.674 134.922L207.464 135.279L208.179 136.939Z" fill="#695AE0"/>
<path d="M208.475 136.884L207.363 137.983L203.1 134.05C203.1 134.05 203.096 133.484 203.657 133.5C204.218 133.517 207.688 135.159 207.688 135.159L208.475 136.884Z" fill="#F8E67D"/>
<path d="M210.953 117.514L209.186 136.131C209.186 136.131 207.876 135.723 207.43 134.95C207.34 129.429 205.638 117.752 206.136 117.259C207.255 116.15 210.953 117.514 210.953 117.514Z" fill="#2E343B"/>
<path d="M224.08 86.8457C221.603 86.5457 220.973 86.6609 219.898 87.2895C218.304 88.2217 217.225 90.4124 216.934 93.546C216.493 98.2976 216.156 102.065 215.818 106.736C216.676 107.138 223.972 107.838 227.659 107.166C227.991 103.117 228.281 96.9502 228.084 92.8657C227.89 88.8634 226.595 87.15 224.08 86.8457Z" fill="#8C83E0"/>
<path d="M220.273 87.0078C220.316 87.2126 220.497 87.7559 220.445 89.6124C220.353 92.866 219.018 107.115 218.629 111.69C218.231 116.364 217.727 120.505 217.727 120.505C217.727 120.505 212.202 113.859 208.264 113.201C210.539 110.16 215.451 106.697 215.451 106.697C215.451 106.697 216.644 94.8289 217.002 92.2362C217.36 89.6429 218.568 87.7111 220.273 87.0078Z" fill="white"/>
<path d="M226.95 147.094L227.078 147.947C227.078 147.947 228.316 148.562 229.304 147.986C229.313 147.694 229.193 147.047 229.193 147.047L226.95 147.094Z" fill="#695AE0"/>
<path d="M229.306 147.896L229.74 149.342L226.556 150.74L223.691 150.642C223.691 150.642 223.252 150.435 223.574 150.003C223.712 149.818 224.73 149.702 225.5 149.248C226.524 148.645 227.076 147.859 227.076 147.859C227.714 148.054 228.484 148.021 229.306 147.896Z" fill="#F8E67D"/>
<path d="M217.325 84.5225C217.325 84.5225 214.926 81.5564 215.269 77.8117C215.64 73.7489 218.497 72.2895 221.86 72.5484C225.556 72.8335 227.144 74.1031 228.07 76.3846C228.902 78.4371 228.332 80.4044 227.295 82.1569C225.688 84.8741 222.77 85.1386 217.325 84.5225Z" fill="#381C14"/>
<path d="M223.581 84.6406C223.581 84.6406 223.884 85.9339 224.081 86.8263C224.278 87.7194 220.66 88.4314 220.35 87.2844C220.186 86.6795 219.955 85.7161 219.955 85.7161L223.581 84.6406Z" fill="#D69E8E"/>
<path d="M224.081 86.8289C224.081 86.8289 222.897 87.5577 222.489 88.5734C222.064 89.6326 221.767 91.4711 221.729 93.4645C221.701 94.9264 220.415 119.232 220.356 123.599C226.064 124.689 230.249 121.458 230.249 121.458C230.249 121.458 229.067 113.48 228.512 105.142C228.167 99.9643 227.651 90.4286 227.065 88.6443C226.623 87.3019 224.621 86.8053 224.081 86.8289Z" fill="white"/>
<path d="M227.605 89.0017C229.01 90.8918 231.06 96.8857 231.588 98.5691C232.478 101.404 228.926 102.837 227.401 99.6869C225.819 96.422 224.633 92.3002 224.302 91.3069C223.759 89.6763 226.106 86.984 227.605 89.0017Z" fill="#E8E8E8"/>
<path d="M217.758 103.085C217.477 102.818 217.099 102.563 216.613 102.466C215.428 102.229 213.823 101.97 213.773 102.228C213.723 102.487 215.169 102.88 215.169 102.88C215.169 102.88 213.892 103.153 213.201 103.415C212.51 103.676 211.769 104.089 211.904 104.297C212.04 104.506 213.529 104.054 213.529 104.054C213.529 104.054 211.801 104.6 211.992 104.924C212.184 105.248 213.936 104.519 213.936 104.519C213.936 104.519 212.583 105.179 212.854 105.489C213.125 105.799 214.608 104.92 214.608 104.92C214.608 104.92 213.709 105.574 213.953 105.853C214.133 106.058 215.591 105.31 216.416 105.022C217.286 104.719 217.808 104.405 217.915 104.35C218.504 104.043 218.156 103.315 217.758 103.085Z" fill="#FFCCD7"/>
<path d="M230.456 101.361C230.456 101.361 225.087 103.873 217.788 104.353C217.453 103.991 216.823 103.299 217.146 102.59C221.773 100.648 227.052 98.2008 228.643 98.11C230.235 98.0191 231.232 99.3117 230.456 101.361Z" fill="#E8E8E8"/>
<path d="M215.867 78.2025C215.49 81.6989 214.994 82.8272 215.495 83.8983C215.967 84.9065 217.529 86.379 221.61 85.8264C224.534 85.4305 225.468 83.4826 225.468 83.4826C225.468 83.4826 225.825 83.7234 226.327 83.7079C226.742 83.6948 227.327 83.3724 227.349 82.7046C227.379 81.7742 226.944 81.4531 226.568 81.3199C225.897 81.0822 225.367 81.641 225.367 81.641C225.367 81.641 225.51 80.3111 225.453 79.3184C225.395 78.3258 225.327 77.2833 220.323 76.5427C219.087 76.3598 217.406 76.1786 216.708 76.4095C216.06 76.6243 215.969 77.2628 215.867 78.2025Z" fill="#FFCCD7"/>
<path d="M218.368 81.3374C218.185 81.2578 217.998 81.1924 217.806 81.1663C217.617 81.1432 217.407 81.1787 217.294 81.3001C217.176 81.4183 217.198 81.6137 217.299 81.765C217.398 81.9193 217.541 82.0481 217.682 82.182C217.514 82.0805 217.346 81.966 217.235 81.8011C217.118 81.6498 217.054 81.4102 217.209 81.2316C217.377 81.0767 217.618 81.0636 217.818 81.0972C218.024 81.1302 218.208 81.2241 218.368 81.3374Z" fill="#936053"/>
<path d="M220.502 83.5547C220.554 83.7669 220.452 83.9934 220.302 84.1633C220.15 84.3376 219.917 84.4521 219.677 84.4882C219.434 84.5131 219.188 84.4839 218.969 84.4023C218.747 84.327 218.549 84.2088 218.366 84.08C218.783 84.2517 219.223 84.416 219.655 84.3557C219.869 84.3333 220.066 84.2362 220.22 84.0949C220.365 83.953 220.499 83.7663 220.502 83.5547Z" fill="#936053"/>
<path d="M219.149 78.9883C218.982 79.4538 218.416 80.8031 219.637 81.2001C220.858 81.5966 220.929 79.8994 220.929 79.8994C220.929 79.8994 219.703 79.1812 219.149 78.9883Z" fill="url(#paint2_linear_1874_9607)"/>
<path d="M219.437 78.9658C220.842 79.3996 221.486 80.1925 220.58 79.9778C219.675 79.7624 218.512 78.6795 219.437 78.9658Z" fill="#5E443D"/>
<path d="M218.985 81.1006C219.268 80.5803 219.802 80.7191 219.907 81.2948" stroke="#452F20" stroke-width="0.163157" stroke-miterlimit="10"/>
<path d="M217.62 78.7969C217.701 79.1746 217.964 80.5388 216.963 80.7629C215.962 80.9869 216.111 79.273 216.111 79.273C216.111 79.273 217.164 78.9083 217.62 78.7969Z" fill="url(#paint3_linear_1874_9607)"/>
<path d="M217.38 78.7391C216.289 78.8505 215.555 79.5294 216.553 79.3583C217.552 79.1871 217.95 78.6805 217.38 78.7391Z" fill="#5E443D"/>
<path d="M216.633 80.6854C216.873 80.0319 217.525 80.1857 217.548 80.714" stroke="#452F20" stroke-width="0.163157" stroke-miterlimit="10"/>
<path d="M226.442 75.1376C225.936 71.9419 220.161 71.2019 220.161 71.2019C217.297 69.2234 218.207 71.5037 218.207 71.5037C213.289 69.3653 215.263 73.8014 215.263 73.8014C213.382 73.5687 215.123 75.3816 215.123 75.3816C215.123 75.3816 218.294 77.1478 219.322 77.3457C220.35 77.5437 224.869 76.0506 224.869 76.0506L226.442 75.1376Z" fill="#381C14"/>
<path d="M242.126 228.656C242.126 228.656 244.601 228.879 247.125 228.504C247.383 228.904 247.541 229.341 247.541 229.341C247.541 229.341 245.421 230.233 241.873 229.596C241.755 229.195 242.126 228.656 242.126 228.656Z" fill="#E8E8E8"/>
<path d="M224.081 86.8435C223.755 86.9804 222.657 87.9326 222.374 88.7081C221.928 89.931 221.768 91.8429 221.646 93.7099C221.631 95.0474 221.576 96.7458 221.576 96.7458C221.576 96.7458 222.921 91.9126 223.224 90.4077C223.072 90.2403 222.739 89.8501 222.739 89.8501L223.407 89.725C223.407 89.725 224.818 87.5094 224.863 86.9524C224.808 86.5012 224.01 86.5236 224.01 86.5236L224.081 86.8435Z" fill="#E8E8E8"/>
<path d="M219.93 96.8553C219.93 96.8553 220.412 91.8391 220.462 90.272C220.511 88.7056 220.594 88.3029 220.274 87.0209C220.25 86.9095 220.213 86.7812 220.213 86.7812C220.213 86.7812 219.93 86.8472 219.608 87.1397C219.285 87.4322 219.205 88.761 219.371 89.8015C219.564 89.8015 219.955 89.8227 219.955 89.8227L219.36 90.5701C219.36 90.5701 219.593 95.6635 219.93 96.8553Z" fill="#E8E8E8"/>
<path d="M222.598 117.269C222.598 117.269 225.621 117.46 227.393 116.344C227.92 119.843 227.048 120.527 225.431 121.295C223.269 120.794 222.887 120.311 222.598 117.269Z" fill="#E8E8E8"/>
<path d="M232.831 100.247C232.831 100.247 256.203 85.4041 292 106.08C327.797 126.755 318.5 172.081 318.5 172.081" stroke="#F1F0FC" stroke-opacity="0.8" stroke-width="1.4" stroke-linecap="round" stroke-dasharray="4.39 4.39"/>
<path d="M87.1164 143.892C87.1164 143.892 76.5219 175.313 93.9193 195.089C111.317 214.865 137.315 214.91 137.315 214.91" stroke="#F1F0FC" stroke-opacity="0.8" stroke-width="1.4" stroke-linecap="round" stroke-dasharray="4.39 4.39"/>
<path fill-rule="evenodd" clip-rule="evenodd" d="M137.572 32.3277C137.011 31.4774 135.805 31.3576 135.186 32.167C133.224 34.7336 132.059 37.9412 132.059 41.421C132.059 49.8449 138.888 56.6739 147.312 56.6739C150.483 56.6739 153.428 55.7064 155.867 54.0505C157.021 53.2678 156.367 51.6773 154.973 51.6773H147.312C145.982 51.6773 144.904 50.5991 144.904 49.269C144.904 47.9389 145.982 46.8606 147.312 46.8606H160.461C161.127 46.8606 161.731 46.4519 161.923 45.8143C162.341 44.4231 162.565 42.9482 162.565 41.421C162.565 32.997 155.736 26.168 147.312 26.168C145.451 26.168 143.667 26.5014 142.018 27.1119C141.12 27.4441 140.837 28.531 141.364 29.3297L145.785 36.0279C145.945 36.2694 146.271 36.3337 146.51 36.1709C147.463 35.522 148.761 35.7684 149.41 36.7212C150.059 37.674 149.813 38.9724 148.86 39.6213L143.364 43.364C142.411 44.0128 141.113 43.7664 140.464 42.8136C139.815 41.8608 140.061 40.5624 141.014 39.9136C141.613 39.5059 141.773 38.6931 141.374 38.0886L137.572 32.3277Z" fill="white"/>
<path d="M167.624 43.4006C167.624 38.8446 170.405 36.2695 175.436 36.2695C180.467 36.2695 183.248 38.8446 183.248 43.4006C183.248 47.9566 180.467 50.5317 175.436 50.5317C170.405 50.5317 167.624 47.9566 167.624 43.4006ZM171.229 43.4006C171.229 45.8569 172.294 47.0058 175.436 47.0058C178.578 47.0058 179.643 46.0153 179.643 43.4006C179.643 40.7859 178.767 39.7955 175.436 39.7955C172.105 39.7955 171.229 40.7859 171.229 43.4006Z" fill="white"/>
<path d="M195.397 45.3622C195.496 44.9549 195.817 44.6089 196.236 44.6089H198.224C198.642 44.6089 198.986 44.9481 198.947 45.3641C198.636 48.6758 196.12 50.5317 191.802 50.5317C186.72 50.5317 183.939 47.9566 183.939 43.4006C183.939 38.8446 186.72 36.2695 191.734 36.2695C196.051 36.2695 198.656 38.1761 198.994 41.4934C199.036 41.9104 198.691 42.2517 198.272 42.2517H196.143C195.74 42.2517 195.42 41.9342 195.344 41.539C195.097 40.2605 194.28 39.7955 191.751 39.7955C187.922 39.7955 187.544 40.7859 187.544 43.4006C187.544 45.8569 188.111 47.0058 191.751 47.0058C194.065 47.0058 195.116 46.5199 195.397 45.3622Z" fill="white"/>
<path d="M199.893 44.3514V37.2265C199.893 36.8074 200.232 36.4676 200.652 36.4676H202.396C202.815 36.4676 203.155 36.8074 203.155 37.2265V43.7374C203.155 45.9757 203.893 47.0058 207.087 47.0058C210.349 47.0058 210.882 46.1144 210.882 43.7374V37.2265C210.882 36.8074 211.221 36.4676 211.64 36.4676H213.385C213.804 36.4676 214.144 36.8074 214.144 37.2265V44.3514C214.144 48.432 211.689 50.5317 207.001 50.5317C202.297 50.5317 199.893 48.432 199.893 44.3514Z" fill="white"/>
<path d="M216.451 50.3336C216.032 50.3336 215.692 49.9939 215.692 49.5748V37.2265C215.692 36.8074 216.032 36.4676 216.451 36.4676H218.195C218.614 36.4676 218.954 36.8074 218.954 37.2265V46.1083C218.954 46.5274 219.294 46.8671 219.713 46.8671H227.038C227.457 46.8671 227.797 47.2069 227.797 47.626V49.5748C227.797 49.9939 227.457 50.3336 227.038 50.3336H216.451Z" fill="white"/>
<path d="M232.096 42.9846V43.8303C232.096 44.2494 232.436 44.5891 232.855 44.5891H239.064C239.483 44.5891 239.823 44.2494 239.823 43.8303V42.9846C239.823 40.6076 239.29 39.7162 236.028 39.7162C232.834 39.7162 232.096 40.7463 232.096 42.9846ZM229.593 50.3336C229.174 50.3336 228.834 49.9939 228.834 49.5748V42.4498C228.834 38.3692 231.238 36.2695 235.942 36.2695C240.63 36.2695 243.085 38.3692 243.085 42.4498V49.5748C243.085 49.9939 242.745 50.3336 242.326 50.3336H240.582C240.162 50.3336 239.823 49.9939 239.823 49.5748V48.6164C239.823 48.1973 239.483 47.8575 239.064 47.8575H232.855C232.436 47.8575 232.096 48.1973 232.096 48.6164V49.5748C232.096 49.9939 231.756 50.3336 231.337 50.3336H229.593Z" fill="white"/>
<path d="M256.132 43.1824C256.065 43.194 256.017 43.2518 256.017 43.3193C256.017 43.3887 256.068 43.4474 256.137 43.457L256.583 43.5195C258.06 43.7176 258.901 44.8863 258.901 46.8077C258.901 49.1649 257.631 50.3336 255.038 50.3336H245.392C244.973 50.3336 244.633 49.9939 244.633 49.5748V37.2265C244.633 36.8074 244.973 36.4676 245.392 36.4676H254.815C257.356 36.4676 258.661 37.6363 258.661 39.9143C258.661 41.6971 257.871 42.8856 256.583 43.1035L256.132 43.1824ZM248.483 39.637C248.063 39.637 247.724 39.9767 247.724 40.3958V40.9977C247.724 41.4168 248.063 41.7565 248.483 41.7565H254.025C254.781 41.7565 255.055 41.4792 255.055 40.667C255.055 39.8945 254.798 39.637 254.094 39.637H248.483ZM248.489 44.9326C248.067 44.9289 247.724 45.2697 247.724 45.6914V46.4054C247.724 46.8245 248.063 47.1642 248.483 47.1642H254.489C255.004 47.1642 255.296 46.8275 255.296 46.0352C255.296 45.2626 255.004 44.9853 254.489 44.9853L248.489 44.9326Z" fill="white"/>
<circle cx="315.129" cy="184.379" r="18.6211" fill="#F1F0FC"/>
<mask id="mask0_1874_9607" style="mask-type:alpha" maskUnits="userSpaceOnUse" x="296" y="165" width="38" height="38">
<circle cx="315.129" cy="184.379" r="18.6211" fill="#F1F0FC"/>
</mask>
<g mask="url(#mask0_1874_9607)">
<rect x="302.342" y="175.934" width="24.7994" height="29.2471" rx="1.07823" fill="#EDEEF0" stroke="#B6AFED" stroke-width="1.61735"/>
<path fill-rule="evenodd" clip-rule="evenodd" d="M312.587 174.179C312.999 173.458 313.84 172.965 314.809 172.965C315.779 172.965 316.619 173.458 317.031 174.179H318.246C318.544 174.179 318.785 174.421 318.785 174.718V177.144C318.785 177.442 318.544 177.683 318.246 177.683H311.238C310.94 177.683 310.698 177.442 310.698 177.144V174.718C310.698 174.421 310.94 174.179 311.238 174.179H312.587Z" fill="#B6AFED"/>
<rect x="305.038" y="179.566" width="6.60418" height="6.60418" rx="0.808675" fill="#B6AFED"/>
<rect x="312.99" y="181.188" width="6.60418" height="1.21301" rx="0.606506" fill="#B6AFED"/>
<rect x="305.038" y="188.676" width="11.1867" height="1.21301" rx="0.606506" fill="#B6AFED"/>
<rect x="312.99" y="183.609" width="11.591" height="1.21301" rx="0.606506" fill="#B6AFED"/>
<rect x="304.992" y="191.172" width="19.543" height="1.21301" rx="0.606506" fill="#B6AFED"/>
<path d="M305.312 201.777C305.136 201.777 304.992 201.63 304.992 201.454C304.992 201.278 305.136 201.134 305.312 201.134H308.117C308.336 200.615 308.712 200.067 309.199 199.588C308.144 198.849 307.293 197.734 307.293 196.431C307.293 195.316 308.089 194.441 309.115 194.441C310.642 194.441 311.641 196.096 311.729 198.205C311.996 198.153 312.272 198.125 312.56 198.125C313.075 198.125 313.407 198.381 313.407 198.781C313.407 199.1 313.231 199.428 313.231 199.572C313.231 199.62 313.259 199.64 313.291 199.64C313.571 199.64 314.653 198.289 315.353 198.289C316.148 198.289 315.736 199.616 316.168 199.616C316.304 199.616 316.419 199.5 316.559 199.5C316.715 199.5 316.815 199.624 316.815 199.776C316.815 199.899 316.747 199.995 316.651 200.059C316.487 200.167 316.276 200.211 316.108 200.211C315.105 200.211 315.472 198.964 315.177 198.964C314.849 198.964 313.874 200.351 313.063 200.351C312.767 200.351 312.548 200.167 312.548 199.863C312.548 199.516 312.735 199.244 312.735 198.897C312.735 198.793 312.656 198.733 312.516 198.733C312.244 198.733 311.98 198.761 311.729 198.817C311.701 199.676 311.557 200.467 311.317 201.134H316.675C316.851 201.134 316.999 201.278 316.999 201.454C316.999 201.63 316.851 201.777 316.675 201.777H311.033C310.554 202.68 309.851 203.24 308.996 203.24C308.244 203.24 307.881 202.78 307.881 202.137C307.881 202.021 307.893 201.901 307.917 201.777H305.312ZM307.905 196.431C307.905 197.674 308.8 198.625 309.635 199.2C310.07 198.853 310.574 198.561 311.125 198.369C311.089 196.539 310.314 195.049 309.115 195.049C308.432 195.049 307.905 195.652 307.905 196.431ZM305.2 200.219C305.092 200.115 305.092 199.959 305.2 199.851L305.699 199.356L305.2 198.857C305.092 198.757 305.092 198.597 305.2 198.493C305.304 198.385 305.459 198.385 305.563 198.493L306.067 198.988L306.566 198.493C306.67 198.389 306.826 198.385 306.93 198.493C307.038 198.597 307.038 198.753 306.93 198.857L306.43 199.356L306.93 199.851C307.038 199.955 307.038 200.115 306.93 200.219C306.826 200.323 306.67 200.323 306.566 200.219L306.067 199.72L305.563 200.219C305.459 200.319 305.304 200.323 305.2 200.219ZM310.066 200.091C309.947 200.031 309.823 199.967 309.699 199.899C309.283 200.287 308.96 200.723 308.756 201.134H310.666C310.905 200.539 311.065 199.804 311.109 199.004C310.766 199.14 310.45 199.32 310.162 199.524C310.218 199.556 310.278 199.584 310.33 199.612C310.446 199.668 310.498 199.764 310.498 199.859C310.498 199.999 310.378 200.127 310.218 200.127C310.17 200.127 310.122 200.115 310.066 200.091ZM308.504 202.021C308.504 202.381 308.684 202.632 309.067 202.632C309.555 202.632 309.99 202.313 310.334 201.777H308.528C308.512 201.861 308.504 201.945 308.504 202.021Z" fill="#B6AFED"/>
<circle cx="323.744" cy="176.974" r="5.99767" fill="#794CFF"/>
<path d="M321.02 177.35L323.327 179.293C323.458 179.403 323.657 179.365 323.738 179.214L326.411 174.25" stroke="white" stroke-width="1.07823" stroke-linecap="round"/>
</g>
<circle cx="90" cy="142" r="26" fill="#F1F0FC"/>
<path d="M78 127C78 127 78.7486 129.999 80.9944 131.494C83.2401 132.989 85.4859 132.989 85.4859 132.989" stroke="#E83982" stroke-width="2.99437" stroke-linecap="round"/>
<path d="M79 158.398C79 158.398 81.8936 157.312 84.3993 158.312C86.9051 159.312 88.1801 161.161 88.1801 161.161" stroke="#E83982" stroke-width="2.99437" stroke-linecap="round"/>
<path d="M105.415 141.395C105.415 141.395 105.99 143.701 107.717 144.85C109.444 146 111.171 146 111.171 146" stroke="#E83982" stroke-width="2.30273" stroke-linecap="round"/>
<path d="M98.3081 125C98.3081 125 99.8918 127.654 99.3535 130.298C98.8152 132.941 97.2228 134.525 97.2228 134.525" stroke="#E83982" stroke-width="2.99437" stroke-linecap="round"/>
<path d="M75.3081 141C75.3081 141 76.8918 143.654 76.3535 146.298C75.8152 148.941 74.2228 150.525 74.2228 150.525" stroke="#E83982" stroke-width="2.99437" stroke-linecap="round"/>
<path d="M88.2058 140C88.2058 140 87.7783 142.988 89.2589 145.167C90.7395 147.347 92.7708 148.174 92.7708 148.174" stroke="#E83982" stroke-width="2.92431" stroke-linecap="round"/>
<path d="M96.6313 145.16C97.6988 143.311 100.368 143.311 101.435 145.16L107.918 156.39C108.986 158.239 107.651 160.55 105.516 160.55H92.55C90.4149 160.55 89.0805 158.239 90.1481 156.39L96.6313 145.16Z" fill="#FF791F"/>
<path d="M99.4362 148.219C99.92 148.219 100.309 148.617 100.298 149.101L100.185 154.075C100.175 154.483 99.8422 154.808 99.4344 154.808C99.0265 154.808 98.6933 154.482 98.6843 154.075L98.5742 149.1C98.5635 148.616 98.9525 148.219 99.4362 148.219ZM99.4342 157.652C99.1577 157.652 98.9208 157.555 98.7233 157.36C98.5289 157.166 98.4316 156.929 98.4316 156.649C98.4316 156.376 98.5289 156.142 98.7233 155.948C98.9208 155.753 99.1577 155.656 99.4342 155.656C99.7046 155.656 99.9385 155.753 100.136 155.948C100.336 156.142 100.437 156.376 100.437 156.649C100.437 156.835 100.39 157.003 100.295 157.155C100.204 157.307 100.083 157.429 99.9309 157.52C99.7821 157.608 99.6165 157.652 99.4342 157.652Z" fill="white"/>
</g>
<defs>
<linearGradient id="paint0_linear_1874_9607" x1="-27.0989" y1="-13.8108" x2="181.556" y2="302.312" gradientUnits="userSpaceOnUse">
<stop offset="0.2" stop-color="#9171F0"/>
<stop offset="1" stop-color="#9171F0" stop-opacity="0"/>
</linearGradient>
<linearGradient id="paint1_linear_1874_9607" x1="460.829" y1="58.8203" x2="460.829" y2="529.865" gradientUnits="userSpaceOnUse">
<stop offset="0.2" stop-color="#9171F0"/>
<stop offset="1" stop-color="#9171F0" stop-opacity="0"/>
</linearGradient>
<linearGradient id="paint2_linear_1874_9607" x1="220.003" y1="79.4078" x2="219.73" y2="81.2393" gradientUnits="userSpaceOnUse">
<stop stop-color="#E0A295"/>
<stop offset="1" stop-color="#E0A295" stop-opacity="0"/>
</linearGradient>
<linearGradient id="paint3_linear_1874_9607" x1="217.011" y1="78.9598" x2="216.738" y2="80.7913" gradientUnits="userSpaceOnUse">
<stop stop-color="#E0A295"/>
<stop offset="1" stop-color="#E0A295" stop-opacity="0"/>
</linearGradient>
<clipPath id="clip0_1874_9607">
<rect y="0.0820312" width="390" height="310" rx="24" fill="white"/>
</clipPath>
</defs>
</svg>
