<svg width="43" height="43" viewBox="0 0 43 43" fill="none" xmlns="http://www.w3.org/2000/svg">
<rect x="1.66012" y="1.082" width="40.4435" height="40.4435" rx="20.2218" stroke="#4C4C4C" stroke-width="1.3985"/>
<path opacity="0.5" d="M32.323 22.0309C32.321 23.5658 32.3095 24.869 32.2228 25.9392C32.1215 27.1818 31.9137 28.2197 31.4501 29.0811C31.2475 29.4587 30.9907 29.8045 30.6879 30.1075C29.8181 30.9773 28.7113 31.371 27.3079 31.5589C25.9369 31.7438 24.1785 31.7438 21.9367 31.7438H21.826C19.5832 31.7438 17.8269 31.7438 16.4548 31.5589C15.0525 31.371 13.9447 30.9773 13.0759 30.1075C12.3053 29.3369 11.9065 28.3784 11.6955 27.1891C11.4867 26.0196 11.4491 24.5662 11.4418 22.7608C11.4397 22.3014 11.439 21.8151 11.4397 21.3021V21.2457C11.4397 19.0028 11.4397 17.2465 11.6245 15.8745C11.8125 14.4722 12.2061 13.3643 13.0759 12.4956C13.9457 11.6268 15.0525 11.2321 16.4548 11.0442C17.6744 10.8803 19.2428 10.8615 21.1526 10.8594C21.3458 10.8594 21.5312 10.9362 21.6679 11.0728C21.8046 11.2095 21.8814 11.3949 21.8814 11.5882C21.8814 11.7815 21.8046 11.9669 21.6679 12.1036C21.5312 12.2402 21.3458 12.317 21.1526 12.317C19.2156 12.3191 17.7757 12.3358 16.6491 12.4872C15.4075 12.6543 14.6589 12.9717 14.1055 13.5251C13.5521 14.0785 13.2357 14.8283 13.0686 16.0708C12.8984 17.3343 12.8963 18.9924 12.8963 21.3021V22.1207L13.8695 21.2708C14.2961 20.8975 14.8485 20.7004 15.415 20.7192C15.9815 20.738 16.5197 20.9714 16.9205 21.372L21.0868 25.5383C21.41 25.8617 21.837 26.0607 22.2925 26.1002C22.7481 26.1398 23.203 26.0173 23.5771 25.7544L23.8674 25.5508C24.407 25.1715 25.0593 24.9866 25.7177 25.0262C26.3761 25.0659 27.0015 25.3278 27.4917 25.769L30.241 28.2437C30.5177 27.6621 30.6827 26.8988 30.7704 25.8212C30.8529 24.8063 30.8643 23.5742 30.8654 22.0309C30.8654 21.8376 30.9422 21.6522 31.0789 21.5156C31.2155 21.3789 31.4009 21.3021 31.5942 21.3021C31.7875 21.3021 31.9729 21.3789 32.1096 21.5156C32.2463 21.6522 32.323 21.8376 32.323 22.0309Z" fill="#D9D9D9"/>
<path fill-rule="evenodd" clip-rule="evenodd" d="M27.6245 20.2569C25.4099 20.2569 24.302 20.2569 23.6139 19.5688C22.9258 18.8807 22.9258 17.7728 22.9258 15.5581C22.9258 13.3434 22.9258 12.2356 23.6139 11.5475C24.302 10.8594 25.4099 10.8594 27.6245 10.8594C29.8392 10.8594 30.9471 10.8594 31.6352 11.5475C32.3233 12.2356 32.3233 13.3434 32.3233 15.5581C32.3233 17.7728 32.3233 18.8807 31.6352 19.5688C30.9471 20.2569 29.8392 20.2569 27.6245 20.2569ZM30.2663 14.5453C30.4046 14.3968 30.4799 14.2005 30.4763 13.9976C30.4728 13.7947 30.3906 13.6011 30.2471 13.4577C30.1036 13.3142 29.91 13.232 29.7071 13.2284C29.5043 13.2248 29.3079 13.3001 29.1595 13.4385L26.5804 16.0176L26.0896 15.5268C26.0179 15.4499 25.9315 15.3881 25.8354 15.3453C25.7393 15.3025 25.6356 15.2795 25.5305 15.2777C25.4253 15.2758 25.3209 15.2952 25.2234 15.3345C25.1259 15.3739 25.0373 15.4326 24.9629 15.5069C24.8885 15.5813 24.8299 15.6699 24.7905 15.7674C24.7511 15.8649 24.7318 15.9693 24.7337 16.0745C24.7355 16.1796 24.7585 16.2833 24.8013 16.3794C24.8441 16.4755 24.9058 16.5619 24.9828 16.6336L26.027 17.6778C26.1738 17.8244 26.3728 17.9068 26.5804 17.9068C26.7879 17.9068 26.9869 17.8244 27.1338 17.6778L30.2663 14.5453Z" fill="#D9D9D9"/>
</svg>
